# xmcd
#
# Track frame offsets: 
#        150
#        21521
#        43092
#        64082
#        83863
#        105826
#        134473
#        145645
#        181375
#        224629
#        249345
#
# Disc length: 3588 seconds
#
# Revision: 2
# Processed by: cddbd v1.5.2PL0 Copyright (c) Steve Scherf et al.
# Submitted via: ExactAudioCopyFreeDBPlugin 1.0
#
DISCID=9b0e020b
DTITLE=Ben Webster - Swing Time 061 - Ben Webster Vol 3 - 1954-57
DYEAR=1954
DGENRE=Jazz
TTITLE0=Ben Webster With Ralph Burns’ Orchestra - Do Nothin' Till You 
TTITLE0=Hear From Me
TTITLE1=Ben Webster With Ralph Burns’ Orchestra - Prelude To A Kiss
TTITLE2=Ben Webster With Ralph Burns’ Orchestra - Willow Weep For Me
TTITLE3=Ben Webster With Ralph Burns’ Orchestra - Come Rain Or Come Sh
TTITLE3=ine
TTITLE4=Bill Harris And Friends - Crazy Rhythm
TTITLE5=Bill Harris And Friends - It Might As Well Be Spring
TTITLE6=Bill Harris And Friends - Just One More Chance
TTITLE7=Bill Harris And Friends - I Surrender Dear
TTITLE8=Bill Harris And Friends - In A Mellow Tone
TTITLE9=Bill Harris And Friends - Where Are You
TTITLE10=Bill Harris And Friends - I'm Getting Sentimental Over You
EXTD=YEAR: 2006
EXTT0=
EXTT1=
EXTT2=
EXTT3=
EXTT4=
EXTT5=
EXTT6=
EXTT7=
EXTT8=
EXTT9=
EXTT10=
PLAYORDER=
